<?xml version="1.0" encoding="UTF-8" standalone="no"?>
<svg width="192" height="192" viewBox="0 0 192 192" fill="none" xmlns="http://www.w3.org/2000/svg">
  <rect width="192" height="192" fill="#2196F3"/>
  <path d="M96 48C68.384 48 46 70.384 46 98C46 125.616 68.384 148 96 148C123.616 148 146 125.616 146 98C146 70.384 123.616 48 96 48ZM96 138C73.944 138 56 120.056 56 98C56 75.944 73.944 58 96 58C118.056 58 136 75.944 136 98C136 120.056 118.056 138 96 138Z" fill="white"/>
  <path d="M96 68C79.432 68 66 81.432 66 98C66 114.568 79.432 128 96 128C112.568 128 126 114.568 126 98C126 81.432 112.568 68 96 68ZM96 118C84.972 118 76 109.028 76 98C76 86.972 84.972 78 96 78C107.028 78 116 86.972 116 98C116 109.028 107.028 118 96 118Z" fill="white"/>
  <circle cx="96" cy="98" r="15" fill="white"/>
</svg> 